<svg width="102" height="114" viewBox="0 0 102 114" fill="none" xmlns="http://www.w3.org/2000/svg">
<path d="M43.0007 93.6663C43.0007 95.7881 43.8435 97.8229 45.3438 99.3232C46.8441 100.823 48.8789 101.666 51.0007 101.666C53.1224 101.666 55.1572 100.823 56.6575 99.3232C58.1578 97.8229 59.0007 95.7881 59.0007 93.6663V58.9997H93.6673C95.7891 58.9997 97.8239 58.1568 99.3242 56.6565C100.824 55.1562 101.667 53.1214 101.667 50.9997C101.667 48.8779 100.824 46.8431 99.3242 45.3428C97.8239 43.8425 95.7891 42.9997 93.6673 42.9997H59.0007V8.33301C59.0007 6.21128 58.1578 4.17645 56.6575 2.67615C55.1572 1.17586 53.1224 0.333008 51.0007 0.333008C48.8789 0.333008 46.8441 1.17586 45.3438 2.67615C43.8435 4.17645 43.0007 6.21128 43.0007 8.33301V42.9997H8.33398C6.21225 42.9997 4.17742 43.8425 2.67713 45.3428C1.17684 46.8431 0.333984 48.8779 0.333984 50.9997C0.333984 53.1214 1.17684 55.1562 2.67713 56.6565C4.17742 58.1568 6.21225 58.9997 8.33398 58.9997H43.0007V93.6663Z" fill="white"/>
</svg>
