<svg width="46" height="46" viewBox="0 0 46 46" fill="none" xmlns="http://www.w3.org/2000/svg">
<path fill-rule="evenodd" clip-rule="evenodd" d="M31.3346 16.7493C31.3346 18.9595 30.4567 21.0791 28.8939 22.6419C27.3311 24.2047 25.2114 25.0827 23.0013 25.0827C20.7912 25.0827 18.6715 24.2047 17.1087 22.6419C15.5459 21.0791 14.668 18.9595 14.668 16.7493C14.668 14.5392 15.5459 12.4196 17.1087 10.8568C18.6715 9.29399 20.7912 8.41602 23.0013 8.41602C25.2114 8.41602 27.3311 9.29399 28.8939 10.8568C30.4567 12.4196 31.3346 14.5392 31.3346 16.7493ZM27.168 16.7493C27.168 17.8544 26.729 18.9142 25.9476 19.6956C25.1662 20.477 24.1064 20.916 23.0013 20.916C21.8962 20.916 20.8364 20.477 20.055 19.6956C19.2736 18.9142 18.8346 17.8544 18.8346 16.7493C18.8346 15.6443 19.2736 14.5845 20.055 13.8031C20.8364 13.0217 21.8962 12.5827 23.0013 12.5827C24.1064 12.5827 25.1662 13.0217 25.9476 13.8031C26.729 14.5845 27.168 15.6443 27.168 16.7493Z" fill="#1F2937"/>
<path fill-rule="evenodd" clip-rule="evenodd" d="M23.0007 0.0830078C10.3444 0.0830078 0.0839844 10.3434 0.0839844 22.9997C0.0839844 35.6559 10.3444 45.9163 23.0007 45.9163C35.6569 45.9163 45.9173 35.6559 45.9173 22.9997C45.9173 10.3434 35.6569 0.0830078 23.0007 0.0830078ZM4.25065 22.9997C4.25065 27.3538 5.73607 31.3622 8.22565 34.5455C9.97449 32.2499 12.2301 30.3895 14.8166 29.1095C17.403 27.8295 20.2502 27.1645 23.1361 27.1663C25.9848 27.163 28.7966 27.8103 31.3572 29.0588C33.9177 30.3073 36.1593 32.124 37.9111 34.3705C39.7162 32.003 40.9316 29.2397 41.4567 26.3092C41.9818 23.3788 41.8015 20.3654 40.9308 17.5184C40.0601 14.6714 38.524 12.0727 36.4496 9.93725C34.3751 7.80181 31.822 6.19105 29.0014 5.23823C26.1809 4.28542 23.174 4.01795 20.2295 4.45795C17.2851 4.89795 14.4877 6.03278 12.0689 7.76854C9.65012 9.50429 7.67942 11.7911 6.31988 14.4397C4.96033 17.0883 4.25103 20.0225 4.25065 22.9997ZM23.0007 41.7497C18.6963 41.7566 14.5218 40.2758 11.184 37.558C12.5273 35.6343 14.3156 34.0636 16.3966 32.9798C18.4776 31.8959 20.7897 31.331 23.1361 31.333C25.4531 31.331 27.7372 31.8819 29.7985 32.9399C31.8599 33.9979 33.639 35.5326 34.9881 37.4163C31.6245 40.2226 27.3812 41.7565 23.0007 41.7497Z" fill="#1F2937"/>
</svg>
