<svg width="50" height="50" viewBox="0 0 50 50" fill="none" xmlns="http://www.w3.org/2000/svg">
<path d="M45.4275 20.9201L43.7493 20.9201L43.7493 20.8337L24.9993 20.8337L24.9993 29.167L36.7733 29.167C35.0556 34.018 30.44 37.5003 24.9993 37.5003C18.0962 37.5003 12.4993 31.9034 12.4993 25.0003C12.4993 18.0972 18.0962 12.5003 24.9994 12.5003C28.1858 12.5003 31.0848 13.7024 33.2921 15.666L39.1848 9.77325C35.4639 6.30554 30.4869 4.167 24.9994 4.167C13.4941 4.16699 4.16601 13.4951 4.16601 25.0003C4.16601 36.5055 13.4941 45.8337 24.9993 45.8337C36.5046 45.8337 45.8327 36.5055 45.8327 25.0003C45.8327 23.6035 45.6889 22.2399 45.4275 20.9201Z" fill="#1F2937"/>
<path d="M6.56836 15.3034L13.4131 20.3232C15.2652 15.7378 19.7507 12.5003 24.9996 12.5003C28.1861 12.5003 31.085 13.7024 33.2923 15.666L39.185 9.77325C35.4642 6.30554 30.4871 4.167 24.9996 4.167C16.9975 4.16699 10.0579 8.6847 6.56836 15.3034Z" fill="#1F2937"/>
<path d="M25 45.8331C30.3812 45.8331 35.2708 43.7737 38.9677 40.4247L32.5198 34.9685C30.3582 36.6133 27.7162 37.5027 25 37.4997C19.5812 37.4997 14.9802 34.0445 13.2469 29.2227L6.45312 34.457C9.90104 41.2039 16.9031 45.8331 25 45.8331Z" fill="#1F2937"/>
<path d="M45.4281 20.9195L43.75 20.9195L43.75 20.833L25 20.833L25 29.1663L36.774 29.1663C35.9523 31.4751 34.4722 33.4926 32.5167 34.9695L32.5198 34.9674L38.9677 40.4236C38.5115 40.8382 45.8333 35.4163 45.8333 24.9997C45.8333 23.6028 45.6896 22.2393 45.4281 20.9195Z" fill="#1F2937"/>
</svg>
