<svg width="42" height="42" viewBox="0 0 42 42" fill="none" xmlns="http://www.w3.org/2000/svg">
<path d="M5.25001 29.7502H36.75C37.2458 29.7502 37.6618 29.9182 37.9978 30.2542C38.3338 30.5902 38.5012 31.0055 38.5 31.5002C38.4988 31.9949 38.3308 32.4108 37.996 32.7479C37.6612 33.0851 37.2458 33.2525 36.75 33.2502H5.25001C4.75417 33.2502 4.33884 33.0822 4.00401 32.7462C3.66917 32.4102 3.50117 31.9949 3.50001 31.5002C3.49884 31.0055 3.66684 30.5902 4.00401 30.2542C4.34117 29.9182 4.75651 29.7502 5.25001 29.7502ZM7.00001 20.0377L6.16876 21.5252C5.99376 21.846 5.73126 22.0502 5.38126 22.1377C5.03126 22.2252 4.69584 22.1814 4.37501 22.0064C4.05417 21.8314 3.85001 21.5689 3.76251 21.2189C3.67501 20.8689 3.71876 20.5335 3.89376 20.2127L4.72501 18.7252H3.06251C2.68334 18.7252 2.37009 18.6015 2.12276 18.3542C1.87542 18.1069 1.75117 17.793 1.75001 17.4127C1.74884 17.0324 1.87309 16.7191 2.12276 16.4729C2.37242 16.2268 2.68567 16.1025 3.06251 16.1002H4.72501L3.89376 14.7002C3.71876 14.3794 3.67501 14.0439 3.76251 13.6939C3.85001 13.3439 4.05417 13.0814 4.37501 12.9064C4.69584 12.7314 5.03126 12.6877 5.38126 12.7752C5.73126 12.8627 5.99376 13.0669 6.16876 13.3877L7.00001 14.7877L7.83126 13.3877C8.00626 13.0669 8.26876 12.8627 8.61876 12.7752C8.96876 12.6877 9.30417 12.7314 9.62501 12.9064C9.94584 13.0814 10.15 13.3439 10.2375 13.6939C10.325 14.0439 10.2813 14.3794 10.1063 14.7002L9.27501 16.1002H10.9375C11.3167 16.1002 11.6305 16.2244 11.879 16.4729C12.1275 16.7214 12.2512 17.0347 12.25 17.4127C12.2488 17.7907 12.1246 18.1045 11.8773 18.3542C11.6299 18.6039 11.3167 18.7275 10.9375 18.7252H9.27501L10.1063 20.2127C10.2813 20.5335 10.325 20.8689 10.2375 21.2189C10.15 21.5689 9.94584 21.8314 9.62501 22.0064C9.30417 22.1814 8.96876 22.2252 8.61876 22.1377C8.26876 22.0502 8.00626 21.846 7.83126 21.5252L7.00001 20.0377ZM21 20.0377L20.1688 21.5252C19.9938 21.846 19.7313 22.0502 19.3813 22.1377C19.0313 22.2252 18.6958 22.1814 18.375 22.0064C18.0542 21.8314 17.85 21.5689 17.7625 21.2189C17.675 20.8689 17.7188 20.5335 17.8938 20.2127L18.725 18.7252H17.0625C16.6833 18.7252 16.3701 18.6015 16.1228 18.3542C15.8754 18.1069 15.7512 17.793 15.75 17.4127C15.7488 17.0324 15.8731 16.7191 16.1228 16.4729C16.3724 16.2268 16.6857 16.1025 17.0625 16.1002H18.725L17.8938 14.7002C17.7188 14.3794 17.675 14.0439 17.7625 13.6939C17.85 13.3439 18.0542 13.0814 18.375 12.9064C18.6958 12.7314 19.0313 12.6877 19.3813 12.7752C19.7313 12.8627 19.9938 13.0669 20.1688 13.3877L21 14.7877L21.8313 13.3877C22.0063 13.0669 22.2688 12.8627 22.6188 12.7752C22.9688 12.6877 23.3042 12.7314 23.625 12.9064C23.9458 13.0814 24.15 13.3439 24.2375 13.6939C24.325 14.0439 24.2813 14.3794 24.1063 14.7002L23.275 16.1002H24.9375C25.3167 16.1002 25.6299 16.2244 25.8773 16.4729C26.1246 16.7214 26.2488 17.0347 26.25 17.4127C26.2512 17.7907 26.1269 18.1045 25.8773 18.3542C25.6276 18.6039 25.3143 18.7275 24.9375 18.7252H23.275L24.1063 20.2127C24.2813 20.5335 24.325 20.8689 24.2375 21.2189C24.15 21.5689 23.9458 21.8314 23.625 22.0064C23.3042 22.1814 22.9688 22.2252 22.6188 22.1377C22.2688 22.0502 22.0063 21.846 21.8313 21.5252L21 20.0377ZM35 20.0377L34.1688 21.5252C33.9938 21.846 33.7313 22.0502 33.3813 22.1377C33.0313 22.2252 32.6958 22.1814 32.375 22.0064C32.0542 21.8314 31.85 21.5689 31.7625 21.2189C31.675 20.8689 31.7188 20.5335 31.8938 20.2127L32.725 18.7252H31.0625C30.6833 18.7252 30.3701 18.6015 30.1228 18.3542C29.8754 18.1069 29.7512 17.793 29.75 17.4127C29.7488 17.0324 29.8731 16.7191 30.1228 16.4729C30.3724 16.2268 30.6857 16.1025 31.0625 16.1002H32.725L31.8938 14.7002C31.7188 14.3794 31.675 14.0439 31.7625 13.6939C31.85 13.3439 32.0542 13.0814 32.375 12.9064C32.6958 12.7314 33.0313 12.6877 33.3813 12.7752C33.7313 12.8627 33.9938 13.0669 34.1688 13.3877L35 14.7877L35.8313 13.3877C36.0063 13.0669 36.2688 12.8627 36.6188 12.7752C36.9688 12.6877 37.3042 12.7314 37.625 12.9064C37.9458 13.0814 38.15 13.3439 38.2375 13.6939C38.325 14.0439 38.2813 14.3794 38.1063 14.7002L37.275 16.1002H38.9375C39.3167 16.1002 39.6305 16.2244 39.879 16.4729C40.1275 16.7214 40.2512 17.0347 40.25 17.4127C40.2488 17.7907 40.1246 18.1045 39.8773 18.3542C39.6299 18.6039 39.3167 18.7275 38.9375 18.7252H37.275L38.1063 20.2127C38.2813 20.5335 38.325 20.8689 38.2375 21.2189C38.15 21.5689 37.9458 21.8314 37.625 22.0064C37.3042 22.1814 36.9688 22.2252 36.6188 22.1377C36.2688 22.0502 36.0063 21.846 35.8313 21.5252L35 20.0377Z" fill="#1F2937"/>
</svg>
