<svg width="50" height="50" viewBox="0 0 50 50" fill="none" xmlns="http://www.w3.org/2000/svg">
<path fill-rule="evenodd" clip-rule="evenodd" d="M32.587 41.8884C30.187 41.8001 23.3853 40.8601 16.262 33.7384C9.14033 26.6151 8.20199 19.8151 8.11199 17.4134C7.97866 13.7534 10.782 10.1984 14.0203 8.81012C14.4103 8.64173 14.8373 8.57762 15.2595 8.62407C15.6818 8.67053 16.0846 8.82596 16.4287 9.07511C19.0953 11.0184 20.9353 13.9584 22.5153 16.2701C22.863 16.778 23.0116 17.396 22.9329 18.0064C22.8542 18.6169 22.5537 19.177 22.0887 19.5801L18.837 21.9951C18.6799 22.1086 18.5693 22.2752 18.5258 22.464C18.4823 22.6528 18.5087 22.851 18.6003 23.0218C19.337 24.3601 20.647 26.3534 22.147 27.8534C23.647 29.3534 25.7353 30.7501 27.167 31.5701C27.3465 31.6709 27.5578 31.699 27.7574 31.6488C27.9571 31.5986 28.1299 31.4738 28.2403 31.3001L30.357 28.0784C30.7461 27.5615 31.3202 27.2152 31.959 27.1121C32.5977 27.0089 33.2516 27.1569 33.7837 27.5251C36.1287 29.1484 38.8653 30.9568 40.8687 33.5218C41.138 33.8683 41.3094 34.2808 41.3648 34.7162C41.4202 35.1516 41.3577 35.5938 41.1837 35.9968C39.7887 39.2518 36.2587 42.0234 32.587 41.8884Z" fill="#1F2937"/>
</svg>
