<svg width="35" height="46" viewBox="0 0 35 46" fill="none" xmlns="http://www.w3.org/2000/svg">
<path d="M17.3333 34.6667C16.1841 34.6667 15.0819 34.2101 14.2692 33.3975C13.4565 32.5848 13 31.4826 13 30.3333C13 27.9283 14.9283 26 17.3333 26C18.4826 26 19.5848 26.4565 20.3975 27.2692C21.2101 28.0819 21.6667 29.1841 21.6667 30.3333C21.6667 31.4826 21.2101 32.5848 20.3975 33.3975C19.5848 34.2101 18.4826 34.6667 17.3333 34.6667ZM30.3333 41.1667V19.5H4.33333V41.1667H30.3333ZM30.3333 15.1667C31.4826 15.1667 32.5848 15.6232 33.3975 16.4359C34.2101 17.2485 34.6667 18.3507 34.6667 19.5V41.1667C34.6667 42.3159 34.2101 43.4181 33.3975 44.2308C32.5848 45.0435 31.4826 45.5 30.3333 45.5H4.33333C3.18406 45.5 2.08186 45.0435 1.2692 44.2308C0.456546 43.4181 0 42.3159 0 41.1667V19.5C0 17.095 1.92833 15.1667 4.33333 15.1667H6.5V10.8333C6.5 7.96016 7.64137 5.20465 9.67301 3.17301C11.7047 1.14137 14.4602 0 17.3333 0C18.756 0 20.1647 0.280213 21.4791 0.824638C22.7934 1.36906 23.9877 2.16704 24.9937 3.17301C25.9996 4.17898 26.7976 5.37324 27.342 6.6876C27.8865 8.00196 28.1667 9.41068 28.1667 10.8333V15.1667H30.3333ZM17.3333 4.33333C15.6094 4.33333 13.9561 5.01815 12.7371 6.23714C11.5182 7.45613 10.8333 9.10943 10.8333 10.8333V15.1667H23.8333V10.8333C23.8333 9.10943 23.1485 7.45613 21.9295 6.23714C20.7105 5.01815 19.0572 4.33333 17.3333 4.33333Z" fill="#1F2937"/>
</svg>
