<svg width="44" height="36" viewBox="0 0 44 36" fill="none" xmlns="http://www.w3.org/2000/svg">
<path d="M4.66732 35.3337C3.47565 35.3337 2.45587 34.9097 1.60798 34.0618C0.760096 33.2139 0.335429 32.1934 0.333984 31.0003V5.00033C0.333984 3.80866 0.758651 2.78888 1.60798 1.94099C2.45732 1.0931 3.4771 0.668437 4.66732 0.666992H39.334C40.5257 0.666992 41.5462 1.09166 42.3955 1.94099C43.2448 2.79032 43.6688 3.8101 43.6673 5.00033V31.0003C43.6673 32.192 43.2434 33.2125 42.3955 34.0618C41.5476 34.9112 40.5271 35.3351 39.334 35.3337H4.66732ZM22.0007 20.167L4.66732 9.33366V31.0003H39.334V9.33366L22.0007 20.167ZM22.0007 15.8337L39.334 5.00033H4.66732L22.0007 15.8337ZM4.66732 9.33366V5.00033V31.0003V9.33366Z" fill="#1F2937"/>
</svg>
