<svg width="41" height="48" viewBox="0 0 41 48" fill="none" xmlns="http://www.w3.org/2000/svg">
<path d="M5.04167 35.7503H35.9583V20.3605C35.9583 11.7855 29.0374 4.83366 20.5 4.83366C11.9626 4.83366 5.04167 11.7855 5.04167 20.3605V35.7503ZM20.5 0.416992C31.4754 0.416992 40.375 9.34529 40.375 20.3605V40.167H0.625V20.3605C0.625 9.34529 9.52458 0.416992 20.5 0.416992ZM14.9792 42.3753H26.0208C26.0208 43.8395 25.4392 45.2438 24.4038 46.2791C23.3685 47.3145 21.9642 47.8962 20.5 47.8962C19.0358 47.8962 17.6315 47.3145 16.5962 46.2791C15.5608 45.2438 14.9792 43.8395 14.9792 42.3753Z" fill="#1F2937"/>
</svg>
