<svg width="43" height="43" viewBox="0 0 43 43" fill="none" xmlns="http://www.w3.org/2000/svg">
<path d="M21.5 40.625C25.2826 40.625 28.9802 39.5033 32.1253 37.4019C35.2704 35.3004 37.7217 32.3135 39.1692 28.8188C40.6167 25.3242 40.9955 21.4788 40.2575 17.7689C39.5196 14.059 37.6981 10.6513 35.0234 7.97659C32.3487 5.30191 28.941 3.48043 25.2311 2.74249C21.5212 2.00455 17.6758 2.38329 14.1812 3.83081C10.6865 5.27834 7.69963 7.72964 5.59814 10.8747C3.49666 14.0198 2.375 17.7174 2.375 21.5C2.375 24.56 3.09325 27.45 4.3725 30.0149C5.33513 31.9508 3.99637 34.5624 3.48638 36.4685C3.37339 36.8901 3.37337 37.334 3.48632 37.7556C3.59927 38.1771 3.82121 38.5616 4.12983 38.8702C4.43844 39.1788 4.82287 39.4007 5.24445 39.5137C5.66604 39.6266 6.10993 39.6266 6.5315 39.5136C8.43762 39.0036 11.0493 37.6649 12.9851 38.6296C15.6312 39.9435 18.5457 40.6265 21.5 40.625Z" stroke="#1F2937" stroke-width="4" stroke-linecap="round" stroke-linejoin="round"/>
</svg>
