<svg width="50" height="42" viewBox="0 0 50 42" fill="none" xmlns="http://www.w3.org/2000/svg">
<path d="M13.4618 11.3084H13.4824M27.2118 24.3402H40.9618C43.0976 24.3402 44.1656 24.3402 45.0066 24.6231C45.5631 24.8103 46.0687 25.0847 46.4945 25.4306C46.9204 25.7766 47.2581 26.1873 47.4885 26.6393C47.8368 27.3226 47.8368 28.1901 47.8368 29.9252C47.8368 31.6603 47.8368 32.5278 47.4885 33.2111C47.2581 33.6631 46.9204 34.0739 46.4945 34.4198C46.0687 34.7658 45.5631 35.0402 45.0066 35.2273C44.1656 35.5103 43.0976 35.5103 40.9618 35.5103H27.2118M31.7951 7.58504H40.9618C43.0976 7.58504 44.1656 7.58504 45.0066 7.86802C45.5631 8.05514 46.0687 8.32952 46.4945 8.67547C46.9204 9.02143 47.2581 9.43217 47.4885 9.88422C47.8368 10.5675 47.8368 11.435 47.8368 13.1701C47.8368 14.9052 47.8368 15.7727 47.4885 16.456C47.2581 16.908 46.9204 17.3187 46.4945 17.6647C46.0687 18.0107 45.5631 18.285 45.0066 18.4722C44.1656 18.7551 43.0976 18.7551 40.9618 18.7551H31.7951M13.4618 2C10.9388 1.99938 8.48607 2.67526 6.48421 3.92276C4.48236 5.17026 3.04331 6.91963 2.39037 8.89942C1.73742 10.8792 1.90709 12.9787 2.87304 14.8722C3.83898 16.7656 5.54721 18.3472 7.73264 19.3713V31.4946C7.73264 33.0175 7.73264 33.777 8.08097 34.4621C8.4293 35.1454 9.09389 35.6834 10.4185 36.7613L13.4618 39.2336L18.2926 35.3092C18.5149 35.1286 18.6272 35.0374 18.7189 34.9387C18.9617 34.681 19.1173 34.3761 19.1703 34.0544C19.191 33.9316 19.191 33.8031 19.191 33.548C19.191 33.3414 19.191 33.2372 19.1772 33.1366C19.1415 32.8728 19.0368 32.6183 18.8701 32.3901C18.78 32.2741 18.6821 32.1622 18.5768 32.055L15.7535 28.9944L17.3576 27.2574C18.2651 26.2726 18.7212 25.7811 18.9549 25.2077C19.191 24.6343 19.191 24.02 19.191 22.7875V19.3713C21.3764 18.3472 23.0846 16.7656 24.0506 14.8722C25.0165 12.9787 25.1862 10.8792 24.5332 8.89942C23.8803 6.91963 22.4412 5.17026 20.4394 3.92276C18.4375 2.67526 15.9848 1.99938 13.4618 2Z" stroke="#1F2937" stroke-width="4" stroke-linecap="round" stroke-linejoin="round"/>
</svg>
