<svg width="41" height="45" viewBox="0 0 41 45" fill="none" xmlns="http://www.w3.org/2000/svg">
<path d="M38.1671 9.24935C38.73 9.24997 39.2714 9.4655 39.6807 9.85189C40.09 10.2383 40.3363 10.7664 40.3692 11.3283C40.4022 11.8902 40.2194 12.4434 39.8581 12.8751C39.4969 13.3067 38.9844 13.5841 38.4255 13.6506L38.1671 13.666H37.9883L35.9588 37.9577C35.9589 39.6475 35.3133 41.2735 34.154 42.503C32.9947 43.7325 31.4094 44.4725 29.7225 44.5716L29.3338 44.5827H11.6671C8.13823 44.5827 5.25415 41.8245 5.05982 38.5098L5.04877 38.141L3.01048 13.666H2.83382C2.27096 13.6654 1.72958 13.4499 1.32029 13.0635C0.911011 12.6771 0.664714 12.149 0.631728 11.5871C0.598742 11.0252 0.781556 10.4719 1.14282 10.0403C1.50408 9.60868 2.01652 9.33129 2.57544 9.26481L2.83382 9.24935H38.1671ZM24.9171 0.416016C26.0885 0.416016 27.2119 0.881342 28.0402 1.70963C28.8685 2.53791 29.3338 3.66131 29.3338 4.83268C29.3332 5.39554 29.1177 5.93692 28.7313 6.3462C28.3449 6.75549 27.8168 7.00178 27.2549 7.03477C26.693 7.06776 26.1397 6.88494 25.7081 6.52368C25.2765 6.16242 24.9991 5.64998 24.9326 5.09106L24.9171 4.83268H16.0838L16.0684 5.09106C16.0019 5.64998 15.7245 6.16242 15.2929 6.52368C14.8612 6.88494 14.308 7.06776 13.7461 7.03477C13.1842 7.00178 12.6561 6.75549 12.2697 6.3462C11.8833 5.93692 11.6678 5.39554 11.6671 4.83268C11.6668 3.71841 12.0876 2.64518 12.8453 1.82814C13.6029 1.0111 14.6414 0.510628 15.7526 0.427058L16.0838 0.416016H24.9171Z" fill="white"/>
</svg>
