<svg width="40" height="44" viewBox="0 0 40 44" fill="none" xmlns="http://www.w3.org/2000/svg">
<path d="M35.5812 2.05865C34.9486 1.42562 34.1973 0.923504 33.3705 0.580992C32.5436 0.238479 31.6574 0.0622912 30.7624 0.0625002C29.8674 0.0627091 28.9813 0.239311 28.1546 0.582209C27.3279 0.925108 26.5769 1.42758 25.9445 2.0609L4.55375 23.4809C3.2792 24.7584 2.56313 26.4891 2.5625 28.2936V35.5004C2.5625 36.4319 3.3185 37.1879 4.25 37.1879H11.5017C13.3085 37.1879 15.041 36.4679 16.3167 35.1922L37.6918 13.8036C38.9668 12.5256 39.6829 10.794 39.6829 8.98865C39.6829 7.18333 38.9668 5.45171 37.6918 4.17365L35.5812 2.05865ZM2 40.5629C1.55245 40.5629 1.12322 40.7407 0.806757 41.0572C0.490289 41.3736 0.3125 41.8028 0.3125 42.2504C0.3125 42.698 0.490289 43.1272 0.806757 43.4436C1.12322 43.7601 1.55245 43.9379 2 43.9379H38C38.4476 43.9379 38.8768 43.7601 39.1932 43.4436C39.5097 43.1272 39.6875 42.698 39.6875 42.2504C39.6875 41.8028 39.5097 41.3736 39.1932 41.0572C38.8768 40.7407 38.4476 40.5629 38 40.5629H2Z" fill="white"/>
</svg>
